<svg height="512pt" viewBox="0 0 512 512" width="512pt" xmlns="http://www.w3.org/2000/svg"><path d="m481.960938 422.007812h-16.902344l-13.132813-210.984374h29.035157v-89.992188h-29.996094v-40.003906l-194.988282-81.027344-194.980468 81.027344v40.003906h-30v89.992188h29.035156l-13.128906 210.984374h-15.90625v59.996094h-30.996094v29.996094h511.957031v-29.996094h-29.996093zm-46.960938 0h-58.070312l13.132812-210.984374h31.808594zm-238.113281 0h-31.804688l-13.132812-210.984374h58.070312zm43.1875-210.984374h31.808593l13.132813 210.984374h-58.070313zm61.863281 0h58.070312l-13.132812 210.984374h-31.804688zm-210.945312-109.976563 164.984374-68.5625 164.988282 68.5625v19.988281h-329.972656zm-29.996094 79.980469v-29.996094h389.964844v29.996094s-375.070313 0-389.964844 0zm29.089844 29.996094h31.808593l13.132813 210.984374h-58.070313zm-29.089844 270.980468v-30h390.964844v30zm0 0"/><path d="m255.980469 97.25-21.210938-21.210938 21.210938-21.210937 21.210937 21.210937zm0 0"/></svg>